<svg xmlns="http://www.w3.org/2000/svg" width="1000" height="1000"><path d="M0 500V0h1000v1000H0z" fill="#fff"/><path d="M486.435 765.727c45.515-2.44 77.06-18.473 89.949-45.715 3.408-7.203 5.392-14.58 6.33-23.535.532-5.083.23-17.022-.557-21.964-2.285-14.367-7.386-24.606-16.844-33.81-6.845-6.66-14.648-11.556-26.051-16.343-5.573-2.34-10.826-4.12-28.72-9.735a28881.29 28881.29 0 0 1-20.536-6.452c-22.248-7.008-31.154-14.562-29.797-25.274.583-4.604 2.036-7.429 5.478-10.648 4.907-4.59 11.97-7.39 23.248-9.217 4.823-.78 22.12-1.095 29.502-.535 14.899 1.13 29.5 4.026 42.427 8.416 3.183 1.08 6.093 1.965 6.466 1.965.492 0 .729-.32.858-1.16.413-2.682 1.769-48.853 1.444-49.17-.733-.715-17.755-4.055-28.197-5.533-15.824-2.24-25.044-2.87-41.786-2.864-14.886.006-20.505.355-31.607 1.963-29.932 4.336-52.892 15.022-65.835 30.641-9.683 11.685-14.141 24.768-14.16 41.551-.02 19.494 5.436 33.657 17.65 45.828 6.135 6.111 11.82 10.113 20.648 14.532 6.825 3.416 11.758 5.245 34.483 12.782 11.846 3.928 23.279 7.856 25.407 8.727 12.306 5.04 19.703 10.317 22.54 16.08 2.157 4.381 1.883 10.298-.728 15.73-3.632 7.556-12.046 12.456-25.54 14.874-4.227.758-5.67.832-16.072.832-11.668 0-17.148-.339-26.607-1.644-15.602-2.153-28.381-5.468-42.09-10.918-4.012-1.595-5.955-2.206-6.208-1.953-.23.23-.711 10.032-1.27 25.803-.86 24.277-.873 25.455-.271 25.895 1.305.955 18.714 4.831 30.196 6.724 20.59 3.395 48.027 5.104 66.25 4.127zm-214.177-3.573c21.88-1.779 35.299-4.901 47.612-11.08 16.687-8.375 26.926-21.786 30.56-40.034 2.07-10.39 2.197-21.063.356-29.975-1.31-6.337-4.03-12.867-7.672-18.418-2.627-4.003-10.268-11.55-14.606-14.425-6.775-4.49-17.061-8.879-24.91-10.626-1.621-.361-2.947-.745-2.947-.853 0-.108 1.085-.484 2.41-.837 3.993-1.06 8.942-3.032 13.66-5.442 16.524-8.439 26.293-22.04 29.177-40.622.91-5.872.812-16.505-.206-22.17-2.03-11.29-6.63-20.332-14.176-27.862-4.16-4.15-8.748-7.41-14.794-10.509-10.27-5.264-21.024-8.202-36.428-9.953-5.094-.58-10.906-.63-72.857-.63h-67.322l-.09 121.765c-.071 97.17 0 121.825.357 122.066.695.468 125.867.093 131.876-.395zm-62.591-72.81l.09-31.34 17.322.004c14.84.003 17.91.094 21.429.64 16.76 2.601 25.5 8.837 29.15 20.799.894 2.93.979 3.714 1 9.272.022 5.315-.077 6.425-.795 8.908-2.202 7.622-7.335 13.627-14.91 17.445-4.65 2.343-12.308 4.386-19.624 5.236-1.767.205-10.085.374-18.484.374h-15.27l.092-31.339zm.077-70.536c-.094-.246-.13-13.464-.078-29.375l.092-28.929 16.429.012c17.404.013 19.95.184 26.25 1.77 15.382 3.872 23.306 14.04 22.386 28.727-1.045 16.67-12.868 26.068-35.062 27.87-6.81.553-29.8.496-30.017-.075zM733.992 762.43c4.812-.18 11.16-.58 14.107-.89 45.65-4.801 78.78-25.652 95.347-60.006 5.318-11.026 8.644-22.158 10.992-36.786.664-4.14.76-6.564.89-22.403.154-18.853-.015-22.002-1.726-32.24-7.095-42.45-30.987-71.456-69.074-83.858-13.095-4.263-25.576-6.46-41.965-7.386-9.587-.541-119.38-.481-119.928.066-.332.33-.429 27.869-.429 121.768 0 115.184.032 121.358.625 121.703.802.467 98.79.496 111.16.034zm-38.929-121.75v-73.97h14.92c8.206 0 16.282.166 17.947.367 13.765 1.664 23.98 6.399 32.671 15.144 7.831 7.878 12.998 17.752 16.274 31.098 4.095 16.676 4.003 38.967-.228 55.474-5.677 22.149-19.324 36.976-39.262 42.659-8.73 2.488-11.81 2.819-28.125 3.02l-14.197.175zM497.11 494.775c41.59-3.773 72.573-22.085 87.702-51.838 5.06-9.952 7.88-19.25 9.676-31.894.624-4.4.659-8.783.659-84.107v-79.464l-35.893-.092c-33.427-.086-35.924-.05-36.34.514-.353.482-.447 16.647-.453 77.95-.005 64.653-.09 77.965-.513 81.141-3.238 24.323-17.087 37.463-39.47 37.45-13.523-.01-24.101-5.244-30.532-15.11-3.395-5.208-5.411-10.698-7.042-19.174l-.79-4.108-.118-78.903c-.084-56.556-.23-79.036-.51-79.375-.597-.72-71.458-.697-72.056.024-.308.372-.381 20.627-.29 80.982.109 72.55.179 80.91.712 84.772 2.07 14.997 5.614 26.01 11.736 36.484 14.486 24.783 41.384 40.018 78.099 44.235 10.72 1.232 25.19 1.441 35.424.513zm-286.55-3.587c.35-.223.464-10 .536-46.156l.09-45.872 8.93-.105c10.055-.117 19.469.346 23.255 1.145 9.104 1.922 13.962 6.04 18.03 15.287 1.84 4.18 3.729 10.071 13.943 43.494 5.8 18.982 9.886 31.786 10.23 32.054.448.35 8.522.446 37.616.446 20.375 0 37.3-.097 37.61-.217.31-.119.565-.448.565-.73 0-.963-25.81-80.998-27.393-84.946-3.25-8.105-6.601-13.467-11.523-18.44-5.612-5.672-12.11-9.334-21.213-11.954-2.366-.68-4.365-1.302-4.443-1.38-.08-.079.556-.32 1.41-.535 28.82-7.274 46.36-23.039 51.323-46.124 3.065-14.263 1.256-30.752-4.677-42.638-9.808-19.648-30.91-31.963-61.5-35.89-10.667-1.37-16.415-1.467-80.912-1.358l-62.322.105-.09 121.764c-.071 97.176 0 121.822.357 122.048.584.37 69.595.372 70.178 0zm.329-138.874c-.131-.13-.238-13.323-.238-29.315v-29.078l18.66.162c17.16.15 18.99.224 22.747.928 5.694 1.067 8.592 1.968 12.52 3.89 4.549 2.226 8.576 6.106 10.463 10.08 2.17 4.568 2.554 6.567 2.54 13.214-.01 4.911-.14 6.357-.782 8.678-2.12 7.66-6.498 12.89-13.815 16.492-5.258 2.59-11.4 4.057-20.19 4.823-4.55.397-31.528.504-31.905.126zm474.323 138.992c.514-.197.566-8.68.566-92.5 0-50.755.12-92.283.268-92.283.148 0 15.697 41.342 34.554 91.87 18.857 50.53 34.566 92.155 34.91 92.5.591.596 3.41.63 52.143.625 28.335-.004 51.72-.134 51.965-.29.356-.226.428-24.872.357-122.048l-.09-121.764h-60.714l-.09 92.59c-.05 50.923-.21 92.586-.358 92.584-.147-.004-15.695-41.237-34.552-91.631-18.858-50.395-34.565-92.098-34.906-92.674l-.62-1.048h-52.79c-40.584 0-52.89.1-53.22.429-.332.332-.429 27.87-.429 121.768 0 115.185.032 121.358.625 121.703.678.395 61.364.56 62.382.17z"/><path d="M140 170h720v50H140zm0 620h720v50H140z" fill="red"/></svg>